<mxfile host="app.diagrams.net" agent="Mozilla/5.0 (Windows NT 10.0; Win64; x64) AppleWebKit/537.36 (KHTML, like Gecko) Chrome/130.0.0.0 Safari/537.36" version="24.8.6">
  <diagram name="Page-1" id="x70oUKCBCOuj8hOK19Mj">
    <mxGraphModel dx="1050" dy="1622" grid="1" gridSize="10" guides="1" tooltips="1" connect="1" arrows="1" fold="1" page="1" pageScale="1" pageWidth="850" pageHeight="1100" math="0" shadow="0">
      <root>
        <mxCell id="0" />
        <mxCell id="1" parent="0" />
        <mxCell id="UmcPPP0V5TBomBnwgstA-37" value="" style="verticalLabelPosition=bottom;verticalAlign=top;html=1;shape=mxgraph.basic.rect;fillColor2=none;strokeWidth=7;size=20;indent=5;strokeColor=#FF6392;labelBackgroundColor=none;fillColor=#FFE45E;fontColor=#5AA9E6;" vertex="1" parent="1">
          <mxGeometry x="382.5" y="140.72" width="60" height="44.28" as="geometry" />
        </mxCell>
        <mxCell id="UmcPPP0V5TBomBnwgstA-40" value="" style="shape=partialRectangle;whiteSpace=wrap;html=1;top=0;bottom=0;fillColor=none;strokeColor=#FF6392;strokeWidth=7;labelBackgroundColor=none;fontColor=#5AA9E6;" vertex="1" parent="1">
          <mxGeometry x="395" y="185" width="30" height="20" as="geometry" />
        </mxCell>
        <mxCell id="UmcPPP0V5TBomBnwgstA-42" value="" style="rounded=1;whiteSpace=wrap;html=1;strokeColor=#FF6392;strokeWidth=7;labelBackgroundColor=none;fillColor=#FFE45E;fontColor=#5AA9E6;" vertex="1" parent="1">
          <mxGeometry x="350" y="205" width="120" height="10" as="geometry" />
        </mxCell>
        <mxCell id="UmcPPP0V5TBomBnwgstA-43" value="" style="swimlane;startSize=0;strokeColor=#FF6392;strokeWidth=7;labelBackgroundColor=none;fillColor=#FFE45E;fontColor=#5AA9E6;" vertex="1" parent="1">
          <mxGeometry x="336.25" y="110.72" width="42.5" height="117.5" as="geometry" />
        </mxCell>
        <mxCell id="UmcPPP0V5TBomBnwgstA-44" value="" style="verticalLabelPosition=bottom;verticalAlign=top;html=1;shape=mxgraph.basic.donut;dx=25;strokeColor=#FF6392;strokeWidth=7;labelBackgroundColor=none;fillColor=#FFE45E;fontColor=#5AA9E6;" vertex="1" parent="UmcPPP0V5TBomBnwgstA-43">
          <mxGeometry x="10" y="80" width="20" height="20" as="geometry" />
        </mxCell>
        <mxCell id="UmcPPP0V5TBomBnwgstA-65" value="" style="triangle;whiteSpace=wrap;html=1;strokeColor=#FF6392;labelBackgroundColor=none;fillColor=#FFE45E;fontColor=#5AA9E6;" vertex="1" parent="1">
          <mxGeometry x="570" y="240" width="30" height="40" as="geometry" />
        </mxCell>
        <mxCell id="UmcPPP0V5TBomBnwgstA-93" value="" style="rounded=0;whiteSpace=wrap;html=1;fillColor=#FFE45E;strokeWidth=0;labelBackgroundColor=none;strokeColor=#FF6392;fontColor=#5AA9E6;" vertex="1" parent="1">
          <mxGeometry x="10" y="240" width="270" height="100" as="geometry" />
        </mxCell>
        <mxCell id="UmcPPP0V5TBomBnwgstA-95" value="" style="ellipse;whiteSpace=wrap;html=1;aspect=fixed;strokeWidth=1;strokeColor=#FF6392;labelBackgroundColor=none;fillColor=#FFE45E;fontColor=#5AA9E6;" vertex="1" parent="1">
          <mxGeometry x="202" y="250" width="60" height="60" as="geometry" />
        </mxCell>
        <mxCell id="UmcPPP0V5TBomBnwgstA-96" value="" style="ellipse;whiteSpace=wrap;html=1;aspect=fixed;strokeColor=#FF6392;fillColor=#FF1957;labelBackgroundColor=none;fontColor=#5AA9E6;" vertex="1" parent="1">
          <mxGeometry x="219.5" y="267.5" width="25" height="25" as="geometry" />
        </mxCell>
        <mxCell id="UmcPPP0V5TBomBnwgstA-97" value="" style="html=1;aspect=fixed;strokeColor=#FF6392;shadow=0;fillColor=#FFE45E;verticalAlign=top;labelPosition=center;verticalLabelPosition=bottom;shape=mxgraph.gcp2.gear;labelBackgroundColor=none;fontColor=#5AA9E6;" vertex="1" parent="1">
          <mxGeometry x="30" y="257.5" width="50" height="50" as="geometry" />
        </mxCell>
        <mxCell id="UmcPPP0V5TBomBnwgstA-99" value="" style="rounded=0;whiteSpace=wrap;html=1;fillColor=#FFE45E;strokeWidth=0;labelBackgroundColor=none;strokeColor=#FF6392;fontColor=#5AA9E6;" vertex="1" parent="1">
          <mxGeometry x="540" y="240" width="270" height="100" as="geometry" />
        </mxCell>
        <mxCell id="UmcPPP0V5TBomBnwgstA-100" value="" style="html=1;aspect=fixed;strokeColor=#FF6392;shadow=0;fillColor=#FFE45E;verticalAlign=top;labelPosition=center;verticalLabelPosition=bottom;shape=mxgraph.gcp2.gear;labelBackgroundColor=none;fontColor=#5AA9E6;" vertex="1" parent="1">
          <mxGeometry x="705" y="252.5" width="50" height="50" as="geometry" />
        </mxCell>
        <mxCell id="UmcPPP0V5TBomBnwgstA-103" value="" style="html=1;aspect=fixed;strokeColor=#FF6392;shadow=0;fillColor=#FFE45E;verticalAlign=top;labelPosition=center;verticalLabelPosition=bottom;shape=mxgraph.gcp2.gear;labelBackgroundColor=none;fontColor=#5AA9E6;" vertex="1" parent="1">
          <mxGeometry x="750" y="240" width="30" height="30" as="geometry" />
        </mxCell>
        <mxCell id="UmcPPP0V5TBomBnwgstA-104" value="" style="ellipse;whiteSpace=wrap;html=1;aspect=fixed;strokeColor=#FF6392;fillColor=#FF2969;labelBackgroundColor=none;fontColor=#5AA9E6;" vertex="1" parent="1">
          <mxGeometry x="555" y="252.5" width="60" height="60" as="geometry" />
        </mxCell>
        <mxCell id="UmcPPP0V5TBomBnwgstA-105" value="" style="triangle;whiteSpace=wrap;html=1;strokeColor=#FF6392;labelBackgroundColor=none;fillColor=#FFE45E;fontColor=#5AA9E6;" vertex="1" parent="1">
          <mxGeometry x="580" y="270" width="20" height="30" as="geometry" />
        </mxCell>
        <mxCell id="UmcPPP0V5TBomBnwgstA-106" value="" style="rounded=0;whiteSpace=wrap;html=1;fillColor=#FFE45E;strokeWidth=0;labelBackgroundColor=none;strokeColor=#FF6392;fontColor=#5AA9E6;" vertex="1" parent="1">
          <mxGeometry x="10" y="40.72" width="270" height="100" as="geometry" />
        </mxCell>
        <mxCell id="UmcPPP0V5TBomBnwgstA-108" value="" style="rounded=1;whiteSpace=wrap;html=1;strokeWidth=7;strokeColor=#FF6392;labelBackgroundColor=none;fillColor=#FFE45E;fontColor=#d61f1f;" vertex="1" parent="1">
          <mxGeometry x="20" y="48.4" width="100" height="39.28" as="geometry" />
        </mxCell>
        <mxCell id="UmcPPP0V5TBomBnwgstA-109" value="" style="rounded=1;whiteSpace=wrap;html=1;strokeWidth=7;strokeColor=#FF6392;labelBackgroundColor=none;fillColor=#FFE45E;fontColor=#5AA9E6;" vertex="1" parent="1">
          <mxGeometry x="20" y="100.72" width="100" height="10" as="geometry" />
        </mxCell>
        <mxCell id="UmcPPP0V5TBomBnwgstA-110" value="" style="rounded=0;whiteSpace=wrap;html=1;fillColor=#FFE45E;strokeWidth=0;labelBackgroundColor=none;strokeColor=#FF6392;fontColor=#5AA9E6;" vertex="1" parent="1">
          <mxGeometry x="540" y="40.900000000000006" width="270" height="100" as="geometry" />
        </mxCell>
        <mxCell id="UmcPPP0V5TBomBnwgstA-111" value="" style="verticalLabelPosition=bottom;verticalAlign=top;html=1;shape=mxgraph.basic.rect;fillColor2=none;strokeWidth=7;size=20;indent=5;strokeColor=#FF6392;labelBackgroundColor=none;fillColor=#FFE45E;fontColor=#5AA9E6;" vertex="1" parent="1">
          <mxGeometry x="685.6" y="48.4" width="104.4" height="61.6" as="geometry" />
        </mxCell>
        <mxCell id="UmcPPP0V5TBomBnwgstA-112" value="" style="endArrow=none;html=1;rounded=0;strokeWidth=7;strokeColor=#FF6392;exitX=0.027;exitY=0.403;exitDx=0;exitDy=0;exitPerimeter=0;labelBackgroundColor=none;fontColor=default;entryX=1;entryY=0.519;entryDx=0;entryDy=0;entryPerimeter=0;" edge="1" parent="1" target="UmcPPP0V5TBomBnwgstA-111">
          <mxGeometry width="50" height="50" relative="1" as="geometry">
            <mxPoint x="690" y="81.15" as="sourcePoint" />
            <mxPoint x="793.4" y="77.25" as="targetPoint" />
          </mxGeometry>
        </mxCell>
        <mxCell id="UmcPPP0V5TBomBnwgstA-114" value="" style="ellipse;whiteSpace=wrap;html=1;aspect=fixed;fillColor=#FFE45E;strokeColor=#FF6392;labelBackgroundColor=none;fontColor=#5AA9E6;" vertex="1" parent="1">
          <mxGeometry x="690" y="60.900000000000006" width="10" height="10" as="geometry" />
        </mxCell>
        <mxCell id="UmcPPP0V5TBomBnwgstA-116" value="" style="ellipse;whiteSpace=wrap;html=1;aspect=fixed;fillColor=#FFE45E;strokeColor=#FF6392;labelBackgroundColor=none;fontColor=#5AA9E6;" vertex="1" parent="1">
          <mxGeometry x="710" y="60.900000000000006" width="10" height="10" as="geometry" />
        </mxCell>
        <mxCell id="UmcPPP0V5TBomBnwgstA-117" value="" style="ellipse;whiteSpace=wrap;html=1;aspect=fixed;fillColor=#FFE45E;strokeColor=#FF6392;labelBackgroundColor=none;fontColor=#5AA9E6;" vertex="1" parent="1">
          <mxGeometry x="730" y="60.900000000000006" width="10" height="10" as="geometry" />
        </mxCell>
        <mxCell id="UmcPPP0V5TBomBnwgstA-120" value="" style="verticalLabelPosition=bottom;html=1;verticalAlign=top;align=center;strokeColor=#FF6392;fillColor=#FFE45E;shape=mxgraph.azure.queue_generic;pointerEvents=1;labelBackgroundColor=none;fontColor=#5AA9E6;" vertex="1" parent="1">
          <mxGeometry x="670" y="183" width="50" height="15" as="geometry" />
        </mxCell>
        <mxCell id="UmcPPP0V5TBomBnwgstA-127" value="" style="points=[[0,0,0],[0.25,0,0],[0.5,0,0],[0.75,0,0],[1,0,0],[0,1,0],[0.25,1,0],[0.5,1,0],[0.75,1,0],[1,1,0],[0,0.25,0],[0,0.5,0],[0,0.75,0],[1,0.25,0],[1,0.5,0],[1,0.75,0]];outlineConnect=0;fontColor=#5AA9E6;fillColor=#FFE45E;strokeColor=#FF6392;dashed=0;verticalLabelPosition=bottom;verticalAlign=top;align=center;html=1;fontSize=12;fontStyle=0;aspect=fixed;shape=mxgraph.aws4.resourceIcon;resIcon=mxgraph.aws4.server_migration_service;hachureGap=4;fontFamily=Architects Daughter;fontSource=https%3A%2F%2Ffonts.googleapis.com%2Fcss%3Ffamily%3DArchitects%2BDaughter;labelBackgroundColor=none;" vertex="1" parent="1">
          <mxGeometry x="202" y="50.72" width="78" height="78" as="geometry" />
        </mxCell>
        <mxCell id="UmcPPP0V5TBomBnwgstA-128" value="" style="points=[[0,0,0],[0.25,0,0],[0.5,0,0],[0.75,0,0],[1,0,0],[0,1,0],[0.25,1,0],[0.5,1,0],[0.75,1,0],[1,1,0],[0,0.25,0],[0,0.5,0],[0,0.75,0],[1,0.25,0],[1,0.5,0],[1,0.75,0]];outlineConnect=0;fontColor=#5AA9E6;fillColor=#FFE45E;strokeColor=#FF6392;dashed=0;verticalLabelPosition=bottom;verticalAlign=top;align=center;html=1;fontSize=12;fontStyle=0;aspect=fixed;shape=mxgraph.aws4.resourceIcon;resIcon=mxgraph.aws4.server_migration_service;hachureGap=4;fontFamily=Architects Daughter;fontSource=https%3A%2F%2Ffonts.googleapis.com%2Fcss%3Ffamily%3DArchitects%2BDaughter;labelBackgroundColor=none;" vertex="1" parent="1">
          <mxGeometry x="540" y="48" width="78" height="78" as="geometry" />
        </mxCell>
        <mxCell id="UmcPPP0V5TBomBnwgstA-131" value="" style="html=1;aspect=fixed;strokeColor=#FF6392;shadow=0;fillColor=#FFE45E;verticalAlign=top;labelPosition=center;verticalLabelPosition=bottom;shape=mxgraph.gcp2.gear;labelBackgroundColor=none;fontColor=#5AA9E6;" vertex="1" parent="1">
          <mxGeometry x="350" y="-26.5" width="15" height="15" as="geometry" />
        </mxCell>
        <mxCell id="UmcPPP0V5TBomBnwgstA-133" value="" style="ellipse;shape=cloud;whiteSpace=wrap;html=1;hachureGap=4;strokeColor=#FF6392;fontFamily=Architects Daughter;fontSource=https%3A%2F%2Ffonts.googleapis.com%2Fcss%3Ffamily%3DArchitects%2BDaughter;fontColor=#5AA9E6;fillColor=#FFE45E;" vertex="1" parent="1">
          <mxGeometry x="310" y="-40" width="60" height="42" as="geometry" />
        </mxCell>
        <mxCell id="UmcPPP0V5TBomBnwgstA-135" value="&lt;font face=&quot;Verdana&quot;&gt;RPA Workflow Designer&lt;/font&gt;" style="text;strokeColor=none;align=center;fillColor=none;html=1;verticalAlign=middle;whiteSpace=wrap;rounded=0;fontFamily=Architects Daughter;fontSource=https%3A%2F%2Ffonts.googleapis.com%2Fcss%3Ffamily%3DArchitects%2BDaughter;fontColor=#5AA9E6;fontStyle=1;" vertex="1" parent="1">
          <mxGeometry x="60" y="10.9" width="170" height="30" as="geometry" />
        </mxCell>
        <mxCell id="UmcPPP0V5TBomBnwgstA-136" value="&lt;font face=&quot;Verdana&quot;&gt;&lt;b&gt;RPA Central&lt;/b&gt;&lt;/font&gt;" style="text;html=1;align=center;verticalAlign=middle;resizable=0;points=[];autosize=1;strokeColor=none;fillColor=none;fontFamily=Architects Daughter;fontSource=https%3A%2F%2Ffonts.googleapis.com%2Fcss%3Ffamily%3DArchitects%2BDaughter;fontColor=#5AA9E6;" vertex="1" parent="1">
          <mxGeometry x="630" y="10.9" width="100" height="30" as="geometry" />
        </mxCell>
        <mxCell id="UmcPPP0V5TBomBnwgstA-137" value="&lt;font face=&quot;Verdana&quot;&gt;&lt;b&gt;RPA Recorder&lt;/b&gt;&lt;/font&gt;" style="text;html=1;align=center;verticalAlign=middle;resizable=0;points=[];autosize=1;strokeColor=none;fillColor=none;fontFamily=Architects Daughter;fontSource=https%3A%2F%2Ffonts.googleapis.com%2Fcss%3Ffamily%3DArchitects%2BDaughter;fontColor=#5AA9E6;" vertex="1" parent="1">
          <mxGeometry x="70" y="205" width="120" height="30" as="geometry" />
        </mxCell>
        <mxCell id="UmcPPP0V5TBomBnwgstA-138" value="&lt;font face=&quot;Verdana&quot;&gt;&lt;b&gt;RPA Robot&lt;/b&gt;&lt;/font&gt;" style="text;html=1;align=center;verticalAlign=middle;resizable=0;points=[];autosize=1;strokeColor=none;fillColor=none;fontFamily=Architects Daughter;fontSource=https%3A%2F%2Ffonts.googleapis.com%2Fcss%3Ffamily%3DArchitects%2BDaughter;fontColor=#5AA9E6;" vertex="1" parent="1">
          <mxGeometry x="615" y="208" width="90" height="30" as="geometry" />
        </mxCell>
        <mxCell id="UmcPPP0V5TBomBnwgstA-139" value="&lt;font face=&quot;Verdana&quot;&gt;&lt;b&gt;RPA Self-Service X&lt;/b&gt;&lt;/font&gt;" style="text;html=1;align=center;verticalAlign=middle;resizable=0;points=[];autosize=1;strokeColor=none;fillColor=none;fontFamily=Architects Daughter;fontSource=https%3A%2F%2Ffonts.googleapis.com%2Fcss%3Ffamily%3DArchitects%2BDaughter;fontColor=#5AA9E6;" vertex="1" parent="1">
          <mxGeometry x="378.75" y="-34" width="150" height="30" as="geometry" />
        </mxCell>
        <mxCell id="UmcPPP0V5TBomBnwgstA-140" value="&lt;b&gt;&lt;font face=&quot;Verdana&quot;&gt;Target&lt;/font&gt;&lt;/b&gt;" style="text;html=1;align=center;verticalAlign=middle;resizable=0;points=[];autosize=1;strokeColor=none;fillColor=none;fontFamily=Architects Daughter;fontSource=https%3A%2F%2Ffonts.googleapis.com%2Fcss%3Ffamily%3DArchitects%2BDaughter;fontColor=#5AA9E6;" vertex="1" parent="1">
          <mxGeometry x="350" y="75.9" width="70" height="30" as="geometry" />
        </mxCell>
        <mxCell id="UmcPPP0V5TBomBnwgstA-141" value="&lt;font face=&quot;Verdana&quot;&gt;Queue&lt;/font&gt;" style="text;html=1;align=center;verticalAlign=middle;resizable=0;points=[];autosize=1;strokeColor=none;fillColor=none;fontFamily=Architects Daughter;fontSource=https%3A%2F%2Ffonts.googleapis.com%2Fcss%3Ffamily%3DArchitects%2BDaughter;fontColor=#5AA9E6;" vertex="1" parent="1">
          <mxGeometry x="720" y="168" width="60" height="30" as="geometry" />
        </mxCell>
        <mxCell id="UmcPPP0V5TBomBnwgstA-143" value="" style="html=1;aspect=fixed;strokeColor=#FF6392;shadow=0;fillColor=#FFE45E;verticalAlign=top;labelPosition=center;verticalLabelPosition=bottom;shape=mxgraph.gcp2.gear;labelBackgroundColor=none;fontColor=#5AA9E6;" vertex="1" parent="1">
          <mxGeometry x="80" y="240" width="30" height="30" as="geometry" />
        </mxCell>
        <mxCell id="UmcPPP0V5TBomBnwgstA-144" value="Workflow Designer UI" style="text;html=1;align=center;verticalAlign=middle;resizable=0;points=[];autosize=1;strokeColor=none;fillColor=none;fontFamily=Verdana;fontColor=#5AA9E6;" vertex="1" parent="1">
          <mxGeometry y="110.9" width="150" height="30" as="geometry" />
        </mxCell>
        <mxCell id="UmcPPP0V5TBomBnwgstA-145" value="&lt;font face=&quot;Verdana&quot;&gt;Server&lt;/font&gt;" style="text;html=1;align=center;verticalAlign=middle;resizable=0;points=[];autosize=1;strokeColor=none;fillColor=none;fontFamily=Architects Daughter;fontSource=https%3A%2F%2Ffonts.googleapis.com%2Fcss%3Ffamily%3DArchitects%2BDaughter;fontColor=#5AA9E6;" vertex="1" parent="1">
          <mxGeometry x="190" y="110" width="60" height="30" as="geometry" />
        </mxCell>
        <mxCell id="UmcPPP0V5TBomBnwgstA-146" value="&lt;font face=&quot;Verdana&quot;&gt;Recorder Service&lt;/font&gt;" style="text;html=1;align=center;verticalAlign=middle;resizable=0;points=[];autosize=1;strokeColor=none;fillColor=none;fontFamily=Architects Daughter;fontSource=https%3A%2F%2Ffonts.googleapis.com%2Fcss%3Ffamily%3DArchitects%2BDaughter;fontColor=#5AA9E6;" vertex="1" parent="1">
          <mxGeometry y="310" width="130" height="30" as="geometry" />
        </mxCell>
        <mxCell id="UmcPPP0V5TBomBnwgstA-147" value="&lt;font face=&quot;Verdana&quot;&gt;Recorder&lt;/font&gt;" style="text;html=1;align=center;verticalAlign=middle;resizable=0;points=[];autosize=1;strokeColor=none;fillColor=none;fontFamily=Architects Daughter;fontSource=https%3A%2F%2Ffonts.googleapis.com%2Fcss%3Ffamily%3DArchitects%2BDaughter;fontColor=#5AA9E6;" vertex="1" parent="1">
          <mxGeometry x="182" y="310" width="80" height="30" as="geometry" />
        </mxCell>
        <mxCell id="UmcPPP0V5TBomBnwgstA-148" value="&lt;font face=&quot;Verdana&quot;&gt;Robot&lt;/font&gt;" style="text;html=1;align=center;verticalAlign=middle;resizable=0;points=[];autosize=1;strokeColor=none;fillColor=none;fontFamily=Architects Daughter;fontSource=https%3A%2F%2Ffonts.googleapis.com%2Fcss%3Ffamily%3DArchitects%2BDaughter;fontColor=#5AA9E6;" vertex="1" parent="1">
          <mxGeometry x="555" y="310" width="60" height="30" as="geometry" />
        </mxCell>
        <mxCell id="UmcPPP0V5TBomBnwgstA-149" value="&lt;font face=&quot;Verdana&quot;&gt;Robot Service&lt;/font&gt;" style="text;html=1;align=center;verticalAlign=middle;resizable=0;points=[];autosize=1;strokeColor=none;fillColor=none;fontFamily=Architects Daughter;fontSource=https%3A%2F%2Ffonts.googleapis.com%2Fcss%3Ffamily%3DArchitects%2BDaughter;fontColor=#5AA9E6;" vertex="1" parent="1">
          <mxGeometry x="685.6" y="307.5" width="110" height="30" as="geometry" />
        </mxCell>
        <mxCell id="UmcPPP0V5TBomBnwgstA-150" value="&lt;font face=&quot;Verdana&quot;&gt;Orchestration Worker&lt;/font&gt;" style="text;html=1;align=center;verticalAlign=middle;resizable=0;points=[];autosize=1;strokeColor=none;fillColor=none;fontFamily=Architects Daughter;fontSource=https%3A%2F%2Ffonts.googleapis.com%2Fcss%3Ffamily%3DArchitects%2BDaughter;fontColor=#5AA9E6;" vertex="1" parent="1">
          <mxGeometry x="528.75" y="110.72" width="150" height="30" as="geometry" />
        </mxCell>
        <mxCell id="UmcPPP0V5TBomBnwgstA-151" value="&lt;font face=&quot;Verdana&quot;&gt;Central UI&lt;/font&gt;" style="text;html=1;align=center;verticalAlign=middle;resizable=0;points=[];autosize=1;strokeColor=none;fillColor=none;fontFamily=Architects Daughter;fontSource=https%3A%2F%2Ffonts.googleapis.com%2Fcss%3Ffamily%3DArchitects%2BDaughter;fontColor=#5AA9E6;" vertex="1" parent="1">
          <mxGeometry x="690" y="110.9" width="80" height="30" as="geometry" />
        </mxCell>
        <mxCell id="UmcPPP0V5TBomBnwgstA-152" value="&lt;font face=&quot;Verdana&quot;&gt;Queue and processes across&amp;nbsp;&lt;/font&gt;&lt;div style=&quot;text-align: justify;&quot;&gt;&lt;font face=&quot;Verdana&quot;&gt;business applications&lt;/font&gt;&lt;/div&gt;" style="text;html=1;align=center;verticalAlign=middle;resizable=0;points=[];autosize=1;strokeColor=none;fillColor=none;fontFamily=Architects Daughter;fontSource=https%3A%2F%2Ffonts.googleapis.com%2Fcss%3Ffamily%3DArchitects%2BDaughter;fontColor=#5AA9E6;" vertex="1" parent="1">
          <mxGeometry x="560" y="350" width="200" height="50" as="geometry" />
        </mxCell>
        <mxCell id="UmcPPP0V5TBomBnwgstA-153" value="&lt;div style=&quot;text-align: justify;&quot;&gt;&lt;span style=&quot;font-family: Verdana; background-color: initial;&quot;&gt;Build workflows and capture the&lt;/span&gt;&lt;/div&gt;&lt;div style=&quot;text-align: justify;&quot;&gt;&lt;font face=&quot;Verdana&quot;&gt;steps required to automate processes&lt;/font&gt;&lt;/div&gt;" style="text;html=1;align=center;verticalAlign=middle;resizable=0;points=[];autosize=1;strokeColor=none;fillColor=none;fontFamily=Architects Daughter;fontSource=https%3A%2F%2Ffonts.googleapis.com%2Fcss%3Ffamily%3DArchitects%2BDaughter;fontColor=#5AA9E6;" vertex="1" parent="1">
          <mxGeometry x="30" y="350" width="250" height="50" as="geometry" />
        </mxCell>
        <mxCell id="UmcPPP0V5TBomBnwgstA-132" value="" style="html=1;aspect=fixed;strokeColor=#FF6392;shadow=0;fillColor=#FFE45E;verticalAlign=top;labelPosition=center;verticalLabelPosition=bottom;shape=mxgraph.gcp2.gear;labelBackgroundColor=none;fontColor=#5AA9E6;" vertex="1" parent="1">
          <mxGeometry x="317.5" y="-25.5" width="32.5" height="32.5" as="geometry" />
        </mxCell>
        <mxCell id="UmcPPP0V5TBomBnwgstA-159" value="" style="endArrow=classic;startArrow=classic;html=1;rounded=0;dashed=1;fillColor=#f8cecc;strokeColor=#b85450;" edge="1" parent="1">
          <mxGeometry width="50" height="50" relative="1" as="geometry">
            <mxPoint x="54.5" y="228.22" as="sourcePoint" />
            <mxPoint x="54.5" y="158.22" as="targetPoint" />
          </mxGeometry>
        </mxCell>
        <mxCell id="UmcPPP0V5TBomBnwgstA-161" value="" style="endArrow=classic;startArrow=classic;html=1;rounded=0;dashed=1;fillColor=#f8cecc;strokeColor=#b85450;" edge="1" parent="1">
          <mxGeometry width="50" height="50" relative="1" as="geometry">
            <mxPoint x="700" y="237.5" as="sourcePoint" />
            <mxPoint x="700" y="195" as="targetPoint" />
          </mxGeometry>
        </mxCell>
        <mxCell id="UmcPPP0V5TBomBnwgstA-164" value="" style="endArrow=classic;startArrow=classic;html=1;rounded=0;dashed=1;fillColor=#f8cecc;strokeColor=#b85450;" edge="1" parent="1">
          <mxGeometry width="50" height="50" relative="1" as="geometry">
            <mxPoint x="700" y="185" as="sourcePoint" />
            <mxPoint x="700" y="142.5" as="targetPoint" />
          </mxGeometry>
        </mxCell>
        <mxCell id="UmcPPP0V5TBomBnwgstA-165" value="" style="endArrow=classic;startArrow=classic;html=1;rounded=0;dashed=1;fillColor=#f8cecc;strokeColor=#b85450;" edge="1" parent="1">
          <mxGeometry width="50" height="50" relative="1" as="geometry">
            <mxPoint x="103.25" y="284.5" as="sourcePoint" />
            <mxPoint x="190" y="285" as="targetPoint" />
          </mxGeometry>
        </mxCell>
        <mxCell id="UmcPPP0V5TBomBnwgstA-166" value="" style="endArrow=classic;startArrow=classic;html=1;rounded=0;dashed=1;fillColor=#f8cecc;strokeColor=#b85450;" edge="1" parent="1">
          <mxGeometry width="50" height="50" relative="1" as="geometry">
            <mxPoint x="616.63" y="284.5" as="sourcePoint" />
            <mxPoint x="703.38" y="285" as="targetPoint" />
          </mxGeometry>
        </mxCell>
        <mxCell id="UmcPPP0V5TBomBnwgstA-167" value="" style="endArrow=classic;startArrow=classic;html=1;rounded=0;dashed=1;fillColor=#f8cecc;strokeColor=#b85450;" edge="1" parent="1">
          <mxGeometry width="50" height="50" relative="1" as="geometry">
            <mxPoint x="128.25" y="86.5" as="sourcePoint" />
            <mxPoint x="202" y="87" as="targetPoint" />
          </mxGeometry>
        </mxCell>
        <mxCell id="UmcPPP0V5TBomBnwgstA-168" value="" style="endArrow=classic;startArrow=classic;html=1;rounded=0;dashed=1;fillColor=#f8cecc;strokeColor=#b85450;" edge="1" parent="1">
          <mxGeometry width="50" height="50" relative="1" as="geometry">
            <mxPoint x="629.75" y="87.68" as="sourcePoint" />
            <mxPoint x="678.75" y="88.68" as="targetPoint" />
          </mxGeometry>
        </mxCell>
        <mxCell id="UmcPPP0V5TBomBnwgstA-170" value="" style="endArrow=classic;startArrow=classic;html=1;rounded=0;dashed=1;fillColor=#f8cecc;strokeColor=#b85450;" edge="1" parent="1">
          <mxGeometry width="50" height="50" relative="1" as="geometry">
            <mxPoint x="267.5" y="238" as="sourcePoint" />
            <mxPoint x="317.5" y="188" as="targetPoint" />
            <Array as="points">
              <mxPoint x="267.5" y="188" />
            </Array>
          </mxGeometry>
        </mxCell>
        <mxCell id="UmcPPP0V5TBomBnwgstA-172" value="" style="endArrow=classic;startArrow=classic;html=1;rounded=0;dashed=1;fillColor=#f8cecc;strokeColor=#b85450;" edge="1" parent="1">
          <mxGeometry width="50" height="50" relative="1" as="geometry">
            <mxPoint x="555" y="240" as="sourcePoint" />
            <mxPoint x="505" y="190" as="targetPoint" />
            <Array as="points">
              <mxPoint x="555" y="190" />
            </Array>
          </mxGeometry>
        </mxCell>
        <mxCell id="UmcPPP0V5TBomBnwgstA-173" value="" style="endArrow=classic;html=1;rounded=0;dashed=1;fillColor=#f8cecc;strokeColor=#b85450;" edge="1" parent="1">
          <mxGeometry width="50" height="50" relative="1" as="geometry">
            <mxPoint x="530" y="-20" as="sourcePoint" />
            <mxPoint x="620" y="40" as="targetPoint" />
            <Array as="points">
              <mxPoint x="620" y="-20" />
            </Array>
          </mxGeometry>
        </mxCell>
      </root>
    </mxGraphModel>
  </diagram>
</mxfile>
